# xmcd
#
# Track frame offsets:
# 150
# 11087
# 20667
# 31247
# 42312
# 53240
# 72492
# 80905
# 90425
# 101155
# 112455
# 122337
# 132310
# 143995
# 154102
# 162345
#
# Disc length: 2304 seconds
#
#
# Revision: 0
# Processed by: cddbd v1.5.1PL0 Copyright (c) Steve Scherf et al.
# Submitted via: FreeRIP 2.80 
#
DISCID=e308fe10
DTITLE=Little Richard - 1964-1968
DYEAR=0164
DGENRE=Rock and Roll
TTITLE0=Lucille
TTITLE1=Good Golly Miss Molly
TTITLE2=Rip It Up
TTITLE3=The Girl Cant Help It
TTITLE4=Send Me Some Lovin
TTITLE5=I Dont Know What You Got
TTITLE6=Ooh My Soul
TTITLE7=Long Tall Sally
TTITLE8=Tutti Frutti
TTITLE9=A Wholoe Lotta Shakin Going On
TTITLE10=Ready Teddy
TTITLE11=Keep A Knockin
TTITLE12=Shes Got It
TTITLE13=Bama Lama Bama Loo
TTITLE14=Blue Berry Hill
TTITLE15=Hound Dog
EXTD=
EXTT0=1965
EXTT1=1965
EXTT2=1965
EXTT3=1965
EXTT4=1965
EXTT5=1965
EXTT6=1965
EXTT7=1964
EXTT8=1968
EXTT9=1965
EXTT10=1965
EXTT11=1965
EXTT12=1965
EXTT13=1965
EXTT14=1965
EXTT15=
PLAYORDER=
